<svg xmlns="http://www.w3.org/2000/svg" viewBox="0 0 24 24">
  <rect width="24" height="24" rx="6" fill="#171230"/>
  <g fill="none" stroke="#ece7f7" stroke-width="1.4" stroke-linecap="round" stroke-linejoin="round">
    <path d="M12 8.8 C9 9.2 7.6 11.5 7.6 14.5 C7.6 17.9 9.4 20.2 12 20.2 C14.6 20.2 16.4 17.9 16.4 14.5 C16.4 11.5 15 9.2 12 8.8 Z"/>
    <circle cx="12" cy="5.7" r="3.1"/>
    <path d="M8.1 11.5 L5.2 12.9"/>
    <path d="M15.9 11.5 L18.8 12.9"/>
    <path d="M10.1 20 L9.2 22"/>
    <path d="M13.9 20 L14.8 22"/>
    <path d="M10.2 4.9 l1.3 1.3 M11.5 4.9 l-1.3 1.3"/>
    <path d="M12.5 4.9 l1.3 1.3 M13.8 4.9 l-1.3 1.3"/>
    <path d="M12 11.6 V17.6" stroke-dasharray="1 1.5"/>
    <path d="M9.6 14 H14.4" stroke-dasharray="1 1.5"/>
  </g>
  <line x1="13.1" y1="14.3" x2="18.4" y2="9.2" stroke="#8fa6d6" stroke-width="1.2" stroke-linecap="round"/>
  <circle cx="18.9" cy="8.7" r="1.6" fill="#ff5c72"/>
</svg>
